<mxfile host="65bd71144e">
    <diagram id="zY8pDtDEPajplbYTUYdH" name="Page-1">
        <mxGraphModel dx="572" dy="409" grid="1" gridSize="10" guides="1" tooltips="1" connect="1" arrows="1" fold="1" page="1" pageScale="1" pageWidth="827" pageHeight="1169" math="0" shadow="0">
            <root>
                <mxCell id="0"/>
                <mxCell id="1" parent="0"/>
                <mxCell id="9" value="&lt;meta charset=&quot;utf-8&quot;&gt;&lt;b style=&quot;font-weight: normal&quot; id=&quot;docs-internal-guid-ad7a88d5-7fff-1fe6-cb7c-be93cc196d5d&quot;&gt;&lt;span style=&quot;font-size: 26pt; font-family: &amp;quot;helvetica neue&amp;quot;, sans-serif; color: rgb(23, 54, 93); background-color: transparent; font-weight: 400; font-style: normal; font-variant: normal; text-decoration: none; vertical-align: baseline;&quot;&gt;&lt;span style=&quot;border: none ; display: inline-block ; overflow: hidden ; width: 476px ; height: 474px&quot;&gt;&lt;img src=&quot;https://lh4.googleusercontent.com/UBvUG6W1PONMN4tc0v5wQGoJ0XDEmcpJZnrPn1obf6WlAAXsU2VpNzGhOKHKHjlOYVvjRObt5JUBnd1vnibPfURoj3pPslr6kxPojPvNgDv3XgTONGHuiD6vvkZYzaR7LXLXQPWbyE4KZMeihkNprUvoX5O5ksANqN8EG1KEH18wFSXkk-33WAKungarcg&quot; width=&quot;476&quot; height=&quot;474&quot; style=&quot;margin-left: 0px ; margin-top: 0px&quot;&gt;&lt;/span&gt;&lt;/span&gt;&lt;/b&gt;" style="text;whiteSpace=wrap;html=1;" vertex="1" parent="1">
                    <mxGeometry x="250" y="160" width="500" height="490" as="geometry"/>
                </mxCell>
            </root>
        </mxGraphModel>
    </diagram>
</mxfile>